<svg xmlns="http://www.w3.org/2000/svg" xmlns:xlink="http://www.w3.org/1999/xlink" width="1080" zoomAndPan="magnify" viewBox="0 0 810 809.999993" height="1080" preserveAspectRatio="xMidYMid meet" version="1.0"><rect x="-81" width="972" fill="#ffffff" y="-80.999999" height="971.999992" fill-opacity="1"/><rect x="-81" width="972" fill="#ffffff" y="-80.999999" height="971.999992" fill-opacity="1"/><path fill="#008000" d="M 619.648438 485.644531 C 606.496094 477.933594 590.328125 478.09375 577.238281 485.871094 L 510.949219 525.367188 C 496.109375 534.210938 477.574219 533.175781 463.96875 522.546875 C 440.445312 504.175781 402.570312 473.265625 369.621094 440.316406 C 336.667969 407.363281 305.757812 369.488281 287.386719 345.96875 C 276.761719 332.359375 275.722656 313.828125 284.570312 298.988281 L 324.066406 232.695312 C 331.875 219.605469 331.9375 203.308594 324.226562 190.15625 L 226.960938 24.007812 C 217.535156 7.9375 198.804688 0.03125 180.695312 4.472656 C 163.101562 8.746094 140.257812 19.179688 116.316406 43.15625 C 41.34375 118.128906 1.523438 244.585938 283.46875 526.53125 C 565.414062 808.476562 691.835938 768.691406 766.84375 693.683594 C 790.851562 669.675781 801.253906 646.800781 805.5625 629.175781 C 809.933594 611.097656 802.160156 592.5 786.121094 583.101562 C 746.074219 559.675781 659.695312 509.101562 619.648438 485.644531 Z M 619.648438 485.644531 " fill-opacity="1" fill-rule="nonzero"/></svg>